<svg xmlns="http://www.w3.org/2000/svg" width="900" height="470" viewBox="0 0 900 470" role="img" aria-labelledby="fig-title fig-desc" font-family="-apple-system, BlinkMacSystemFont, Segoe UI, Helvetica, Arial, sans-serif">
<title id="fig-title">G2: native W4A16 throughput</title>
<desc id="fig-desc">Seven MLP position counts, all three hosts per engine and their medians.</desc>
<style>text{dominant-baseline:auto}.num{font-variant-numeric:tabular-nums}.b{font-weight:700}.sb{font-weight:600}.mono{font-family:ui-monospace, SFMono-Regular, Menlo, Consolas, monospace}.t-bg{fill:#fbfcfd}.f-bg{fill:#fbfcfd}.s-bg{stroke:#fbfcfd}.t-card{fill:#ffffff}.f-card{fill:#ffffff}.s-card{stroke:#ffffff}.t-rule{fill:#e3e8ef}.f-rule{fill:#e3e8ef}.s-rule{stroke:#e3e8ef}.t-grid{fill:#eef2f7}.f-grid{fill:#eef2f7}.s-grid{stroke:#eef2f7}.t-ink{fill:#1f2937}.f-ink{fill:#1f2937}.s-ink{stroke:#1f2937}.t-muted{fill:#65748b}.f-muted{fill:#65748b}.s-muted{stroke:#65748b}.t-slate{fill:#94a3b8}.f-slate{fill:#94a3b8}.s-slate{stroke:#94a3b8}.t-blue{fill:#3b7dd8}.f-blue{fill:#3b7dd8}.s-blue{stroke:#3b7dd8}.t-teal{fill:#0e8a7d}.f-teal{fill:#0e8a7d}.s-teal{stroke:#0e8a7d}.t-amber{fill:#c8791d}.f-amber{fill:#c8791d}.s-amber{stroke:#c8791d}.t-red{fill:#c0524a}.f-red{fill:#c0524a}.s-red{stroke:#c0524a}.t-plum{fill:#7c6bd6}.f-plum{fill:#7c6bd6}.s-plum{stroke:#7c6bd6}.tint-blue{fill:#eff5fd}.tint-teal{fill:#ecf8f6}.tint-amber{fill:#fdf5ea}.tint-red{fill:#fdf0ef}.tint-slate{fill:#f5f7fa}@media (prefers-color-scheme:dark){.t-bg{fill:#0d1117}.f-bg{fill:#0d1117}.s-bg{stroke:#0d1117}.t-card{fill:#161b22}.f-card{fill:#161b22}.s-card{stroke:#161b22}.t-rule{fill:#2f3742}.f-rule{fill:#2f3742}.s-rule{stroke:#2f3742}.t-grid{fill:#242c36}.f-grid{fill:#242c36}.s-grid{stroke:#242c36}.t-ink{fill:#e6edf3}.f-ink{fill:#e6edf3}.s-ink{stroke:#e6edf3}.t-muted{fill:#9aa7b6}.f-muted{fill:#9aa7b6}.s-muted{stroke:#9aa7b6}.t-slate{fill:#8492a3}.f-slate{fill:#8492a3}.s-slate{stroke:#8492a3}.t-blue{fill:#6ea8f0}.f-blue{fill:#6ea8f0}.s-blue{stroke:#6ea8f0}.t-teal{fill:#33b3a4}.f-teal{fill:#33b3a4}.s-teal{stroke:#33b3a4}.t-amber{fill:#e0a44e}.f-amber{fill:#e0a44e}.s-amber{stroke:#e0a44e}.t-red{fill:#e0776d}.f-red{fill:#e0776d}.s-red{stroke:#e0776d}.t-plum{fill:#a394ec}.f-plum{fill:#a394ec}.s-plum{stroke:#a394ec}.tint-blue{fill:#16212f}.tint-teal{fill:#10241f}.tint-amber{fill:#241a10}.tint-red{fill:#241413}.tint-slate{fill:#1b212a}}</style>
<defs><marker id="arrow" markerWidth="9" markerHeight="9" refX="8" refY="4.5" orient="auto-start-reverse"><path d="M0 1 L8 4.5 L0 8" fill="none" class="s-muted" stroke-width="1.6" stroke-linecap="round" stroke-linejoin="round"/></marker></defs>
<rect width="900" height="470" class="f-bg"/>
<text x="40" y="30" font-size="17" class="t-ink b">W4A16: seven sizes, three hosts per engine</text>
<text x="40" y="50" font-size="12" class="t-muted">Gemma-derived first-layer MLP · same-source Q4_0 · M5 Pro</text>
<text x="40" y="68" font-size="10.5" class="t-muted">Thin lines: individual hosts. Thick lines: median host rate. No confidence interval.</text>
<text x="90" y="111" font-size="12" class="t-ink sb">MLP positions/s</text>
<path d="M90 380 L830 380" fill="none" class="s-grid" stroke-width="1"/>
<text x="81" y="384" font-size="10.5" class="t-muted" text-anchor="end">0</text>
<path d="M90 307.143 L830 307.143" fill="none" class="s-grid" stroke-width="1"/>
<text x="81" y="311.143" font-size="10.5" class="t-muted" text-anchor="end">10000</text>
<path d="M90 234.286 L830 234.286" fill="none" class="s-grid" stroke-width="1"/>
<text x="81" y="238.286" font-size="10.5" class="t-muted" text-anchor="end">20000</text>
<path d="M90 161.429 L830 161.429" fill="none" class="s-grid" stroke-width="1"/>
<text x="81" y="165.429" font-size="10.5" class="t-muted" text-anchor="end">30000</text>
<path d="M90 125 L830 125" fill="none" class="s-grid" stroke-width="1"/>
<text x="81" y="129" font-size="10.5" class="t-muted" text-anchor="end">35000</text>
<text x="90" y="398" font-size="10.5" class="t-muted" text-anchor="middle">64</text>
<text x="213.333" y="398" font-size="10.5" class="t-muted" text-anchor="middle">128</text>
<text x="336.667" y="398" font-size="10.5" class="t-muted" text-anchor="middle">256</text>
<text x="460" y="398" font-size="10.5" class="t-muted" text-anchor="middle">512</text>
<text x="583.333" y="398" font-size="10.5" class="t-muted" text-anchor="middle">1024</text>
<text x="706.667" y="398" font-size="10.5" class="t-muted" text-anchor="middle">2048</text>
<text x="830" y="398" font-size="10.5" class="t-muted" text-anchor="middle">4096</text>
<text x="460" y="416" font-size="10.5" class="t-muted" text-anchor="middle">Positions per request (log₂ spacing)</text>
<path d="M90 246.769 L213.333 166.739 L336.667 162.922 L460 149.468 L583.333 181.14 L706.667 183.443 L830 184.353" fill="none" class="s-blue" stroke-width="0.8" stroke-linejoin="round"/>
<circle cx="90" cy="246.769" r="3.2" class="f-blue"/>
<circle cx="213.333" cy="166.739" r="3.2" class="f-blue"/>
<circle cx="336.667" cy="162.922" r="3.2" class="f-blue"/>
<circle cx="460" cy="149.468" r="3.2" class="f-blue"/>
<circle cx="583.333" cy="181.14" r="3.2" class="f-blue"/>
<circle cx="706.667" cy="183.443" r="3.2" class="f-blue"/>
<circle cx="830" cy="184.353" r="3.2" class="f-blue"/>
<path d="M90 244.344 L213.333 162.559 L336.667 160.344 L460 147.873 L583.333 186.885 L706.667 180.613 L830 185.166" fill="none" class="s-blue" stroke-width="0.8" stroke-linejoin="round"/>
<circle cx="90" cy="244.344" r="3.2" class="f-blue"/>
<circle cx="213.333" cy="162.559" r="3.2" class="f-blue"/>
<circle cx="336.667" cy="160.344" r="3.2" class="f-blue"/>
<circle cx="460" cy="147.873" r="3.2" class="f-blue"/>
<circle cx="583.333" cy="186.885" r="3.2" class="f-blue"/>
<circle cx="706.667" cy="180.613" r="3.2" class="f-blue"/>
<circle cx="830" cy="185.166" r="3.2" class="f-blue"/>
<path d="M90 245.298 L213.333 163.106 L336.667 162.198 L460 194.241 L583.333 181.221 L706.667 181.009 L830 183.452" fill="none" class="s-blue" stroke-width="0.8" stroke-linejoin="round"/>
<circle cx="90" cy="245.298" r="3.2" class="f-blue"/>
<circle cx="213.333" cy="163.106" r="3.2" class="f-blue"/>
<circle cx="336.667" cy="162.198" r="3.2" class="f-blue"/>
<circle cx="460" cy="194.241" r="3.2" class="f-blue"/>
<circle cx="583.333" cy="181.221" r="3.2" class="f-blue"/>
<circle cx="706.667" cy="181.009" r="3.2" class="f-blue"/>
<circle cx="830" cy="183.452" r="3.2" class="f-blue"/>
<path d="M90 245.298 L213.333 163.106 L336.667 162.198 L460 149.468 L583.333 181.221 L706.667 181.009 L830 184.353" fill="none" class="s-blue" stroke-width="3" stroke-linejoin="round"/>
<path d="M90 334.544 L213.333 334.412 L336.667 330.777 L460 330.814 L583.333 330.759 L706.667 330.722 L830 330.739" fill="none" class="s-teal" stroke-width="0.8" stroke-linejoin="round"/>
<circle cx="90" cy="334.544" r="3.2" class="f-teal"/>
<circle cx="213.333" cy="334.412" r="3.2" class="f-teal"/>
<circle cx="336.667" cy="330.777" r="3.2" class="f-teal"/>
<circle cx="460" cy="330.814" r="3.2" class="f-teal"/>
<circle cx="583.333" cy="330.759" r="3.2" class="f-teal"/>
<circle cx="706.667" cy="330.722" r="3.2" class="f-teal"/>
<circle cx="830" cy="330.739" r="3.2" class="f-teal"/>
<path d="M90 334.531 L213.333 334.513 L336.667 330.763 L460 330.737 L583.333 330.715 L706.667 330.762 L830 330.75" fill="none" class="s-teal" stroke-width="0.8" stroke-linejoin="round"/>
<circle cx="90" cy="334.531" r="3.2" class="f-teal"/>
<circle cx="213.333" cy="334.513" r="3.2" class="f-teal"/>
<circle cx="336.667" cy="330.763" r="3.2" class="f-teal"/>
<circle cx="460" cy="330.737" r="3.2" class="f-teal"/>
<circle cx="583.333" cy="330.715" r="3.2" class="f-teal"/>
<circle cx="706.667" cy="330.762" r="3.2" class="f-teal"/>
<circle cx="830" cy="330.75" r="3.2" class="f-teal"/>
<path d="M90 334.457 L213.333 334.343 L336.667 330.697 L460 330.814 L583.333 330.803 L706.667 330.634 L830 330.734" fill="none" class="s-teal" stroke-width="0.8" stroke-linejoin="round"/>
<circle cx="90" cy="334.457" r="3.2" class="f-teal"/>
<circle cx="213.333" cy="334.343" r="3.2" class="f-teal"/>
<circle cx="336.667" cy="330.697" r="3.2" class="f-teal"/>
<circle cx="460" cy="330.814" r="3.2" class="f-teal"/>
<circle cx="583.333" cy="330.803" r="3.2" class="f-teal"/>
<circle cx="706.667" cy="330.634" r="3.2" class="f-teal"/>
<circle cx="830" cy="330.734" r="3.2" class="f-teal"/>
<path d="M90 334.531 L213.333 334.412 L336.667 330.763 L460 330.814 L583.333 330.759 L706.667 330.722 L830 330.739" fill="none" class="s-teal" stroke-width="3" stroke-linejoin="round"/>
<path d="M460 96 L472 96" fill="none" class="s-teal" stroke-width="3" stroke-linecap="round"/>
<text x="478" y="100" font-size="10.5" class="t-muted">ANE</text>
<path d="M516.8 96 L528.8 96" fill="none" class="s-blue" stroke-width="3" stroke-linecap="round"/>
<text x="534.8" y="100" font-size="10.5" class="t-muted">MLX GPU</text>
<text x="40" y="440" font-size="10.5" class="t-muted">One complete MLP component, not a token rate. Ventura screensaver reported; its effect was not isolated.</text>
</svg>
